<?xml version="1.0" encoding="UTF-8" standalone="no"?>
<svg
   xmlns:dc="http://purl.org/dc/elements/1.1/"
   xmlns:cc="http://creativecommons.org/ns#"
   xmlns:rdf="http://www.w3.org/1999/02/22-rdf-syntax-ns#"
   xmlns:svg="http://www.w3.org/2000/svg"
   xmlns="http://www.w3.org/2000/svg"
   xmlns:sodipodi="http://sodipodi.sourceforge.net/DTD/sodipodi-0.dtd"
   xmlns:inkscape="http://www.inkscape.org/namespaces/inkscape"
   inkscape:version="1.0 (4035a4f, 2020-05-01)"
   sodipodi:docname="icon.svg"
   id="svg841"
   xml:space="preserve"
   viewBox="0 0 30.774837 30.774842"
   height="30.774841"
   width="30.774837"
   y="0px"
   x="0px"
   version="1.1"><defs
     id="defs845" /><sodipodi:namedview
     inkscape:current-layer="Outline"
     inkscape:window-maximized="0"
     inkscape:window-y="23"
     inkscape:window-x="0"
     inkscape:cy="15.38742"
     inkscape:cx="15.387419"
     inkscape:zoom="29.666667"
     fit-margin-bottom="0"
     fit-margin-right="0"
     fit-margin-left="0"
     fit-margin-top="0"
     showgrid="false"
     id="namedview843"
     inkscape:window-height="1395"
     inkscape:window-width="2560"
     inkscape:pageshadow="2"
     inkscape:pageopacity="0"
     guidetolerance="10"
     gridtolerance="10"
     objecttolerance="10"
     borderopacity="1"
     bordercolor="#666666"
     pagecolor="#ffffff" /><ellipse
     ry="14.442538"
     rx="14.442537"
     cy="15.387421"
     cx="15.387419"
     id="path847"
     style="fill:#ffffff;stroke:#777777;stroke-width:1.88976;stroke-miterlimit:4;stroke-dasharray:none;stroke-opacity:1" /><path
     id="Frames-24px"
     d="M 3.3874192,3.3869205 H 27.387419 V 27.38792 H 3.3874192 Z"
     fill="none" /><g
     transform="translate(3.3874192,3.3869205)"
     style="fill:#777777;fill-opacity:1"
     id="Outline"
     fill="#757575"><path
       style="fill:#777777;fill-opacity:1"
       id="path834"
       d="m 21.001,13.002 c 0,-4.601 -4.535,-11 -9,-11 -4.465,0 -9,6.399 -9,11 0,4.898 4.081,5.861 8,5.982 v 1.018 h -3 v 2 h 8 v -2 h -3 v -1.018 c 3.919,-0.121 8,-1.084 8,-5.982 z m -16,0 c 0,-3.554 3.754,-9 7,-9 3.246,0 7,5.446 7,9 0,2.023 -0.541,4 -7,4 -6.459,0 -7,-1.977 -7,-4 z" /><path
       style="fill:#777777;fill-opacity:1"
       id="path836"
       d="m 15.001,15.002 h 2 c 0,-1.768 -2.635,-3 -5,-3 -2.365,0 -5,1.232 -5,3 l 1.992,0.059 c 0.129,-0.323 1.4,-1.059 3.008,-1.059 1.608,0 2.879,0.736 3,1 z" /></g><metadata
     id="metadata839"><rdf:RDF><rdf:Description
         dc:language="en"
         dc:format="image/svg+xml"
         dc:date="2017-09-21"
         dc:publisher="Iconscout"
         dc:description="chair"
         dc:title="chair"
         about="https://iconscout.com/legal#licenses"><dc:creator><rdf:Bag><rdf:li>Vincent Le Moign</rdf:li></rdf:Bag></dc:creator></rdf:Description><cc:Work
         rdf:about=""><dc:format>image/svg+xml</dc:format><dc:type
           rdf:resource="http://purl.org/dc/dcmitype/StillImage" /><dc:title></dc:title></cc:Work></rdf:RDF></metadata></svg>
